<svg viewBox="0 0 10 30" fill="none" xmlns="http://www.w3.org/2000/svg">
    <path stroke-width="0.2" stroke-dasharray="0.3" stroke="black"
          d="M2 1C4 1.3333 8-1 8 2 8 4 0 4 2 5 5 7 5 4 8 5 10 6 2 7 2 8 1 10 10 8 5 12 3 14 0 14 2 15 4 16.3333 19 17 8 19 1 20 8 21 3 22-2 22 7 25 7 29"/>
    <path d="m6.21,28.65l0.36,-0.37l0.38,0.4l0.38,-0.4l0.36,0.37l-0.38,0.4l0.38,0.4l-0.36,0.37l-0.38,-0.4l-0.38,0.4l-0.36,-0.37l0.38,-0.4l-0.38,-0.4z"
          fill="#FF0000" id="svg_3" stroke="#000000" stroke-width="0"/>
</svg>